# xmcd
#
# Track frame offsets: 
#        150
#        16837
#        32176
#        48383
#        68728
#        88279
#        107337
#        122815
#        144414
#        163372
#        181329
#        196188
#
# Disc length: 2889 seconds
#
# Revision: 0
# Processed by: cddbd v1.5.1PL2 Copyright (c) Steve Scherf et al.
# Submitted via: ExactAudioCopy v0.95b1
#
DISCID=a10b470c
DTITLE=The Hangdogs - East Of Yesterday
DYEAR=1900
DGENRE=Country
TTITLE0=Once More's Gone
TTITLE1=Hey, Janeane
TTITLE2=Speed Rack
TTITLE3=Drift
TTITLE4=Something Left To Save
TTITLE5=The Ring
TTITLE6=I'd Call To Say I Love You...
TTITLE7=The Man With The Plan That Went Away
TTITLE8=High And Dry
TTITLE9=In My Dreams
TTITLE10=They Don't Play No Country On The East Side Of New York
TTITLE11=Flatlands
EXTD=
EXTT0=
EXTT1=
EXTT2=
EXTT3=
EXTT4=
EXTT5=
EXTT6=
EXTT7=
EXTT8=
EXTT9=
EXTT10=
EXTT11=
PLAYORDER=
